# xmcd
#
# Track frame offsets:
# 150
# 11092
# 25558
# 39715
# 52287
# 63891
# 77094
# 86790
# 101717
# 112880
#
# Disc length: 1704 seconds
#
#
# Revision: 0
# Processed by: cddbd v1.5PL3 Copyright (c) Steve Scherf et al.
# Submitted via: FreeRIP 2.53 
#
DISCID=7b06a60a
DTITLE=Fargo, Donna - Good Old Country
DYEAR=1900
DGENRE=
TTITLE0=All That's Keeping Me Alive
TTITLE1=Do I Love You Yes In Every Way
TTITLE2=Don't Be Angry
TTITLE3=Funny Face
TTITLE4=The Happiest Girl In The Whole USA
TTITLE5=My Somebody Special
TTITLE6=Sticks And Stones
TTITLE7=That Was Yesterday
TTITLE8=Wishful Thinking
TTITLE9=You Were Always There
EXTD=
EXTT0=
EXTT1=
EXTT2=
EXTT3=
EXTT4=
EXTT5=
EXTT6=
EXTT7=
EXTT8=
EXTT9=
PLAYORDER=
